<svg xmlns="http://www.w3.org/2000/svg" viewBox="0 0 64 64" fill="none">
  <defs>
    <linearGradient id="bg" x1="0%" y1="0%" x2="0%" y2="100%">
      <stop offset="0%" stop-color="#f59e0b"/>
      <stop offset="100%" stop-color="#ea580c"/>
    </linearGradient>
  </defs>
  <!-- rounded orange tile -->
  <rect width="64" height="64" rx="14" fill="url(#bg)"/>
  <!-- soft pads (complete paw: 4 toes + main pad) -->
  <ellipse cx="18" cy="26" rx="6.2" ry="7.5" fill="#fff7ed" transform="rotate(-28 18 26)"/>
  <ellipse cx="27" cy="17" rx="6.5" ry="8.2" fill="#fff7ed" transform="rotate(-8 27 17)"/>
  <ellipse cx="39" cy="17" rx="6.5" ry="8.2" fill="#fff7ed" transform="rotate(8 39 17)"/>
  <ellipse cx="48" cy="26" rx="6.2" ry="7.5" fill="#fff7ed" transform="rotate(28 48 26)"/>
  <!-- main pad — full cloud shape (no missing lobe) -->
  <path
    fill="#fff7ed"
    d="M32 28
       C40 28 48 34 48 42.5
       C48 51 41 56 32 56
       C23 56 16 51 16 42.5
       C16 34 24 28 32 28
       C29 31 27 34 27 37
       C27 34 29 31 32 28
       C35 31 37 34 37 37
       C37 34 35 31 32 28Z"
  />
  <ellipse cx="32" cy="44" rx="14" ry="11.5" fill="#fff7ed"/>
  <!-- upper lobes of main pad (the piece that was missing) -->
  <ellipse cx="24.5" cy="38" rx="7" ry="6" fill="#fff7ed"/>
  <ellipse cx="39.5" cy="38" rx="7" ry="6" fill="#fff7ed"/>
  <ellipse cx="32" cy="36" rx="6" ry="5" fill="#fff7ed"/>
</svg>
